<svg width="128" height="128" xmlns="http://www.w3.org/2000/svg">

 <g>
  <title>background</title>
  <rect fill="#ffffff" id="canvas_background" height="130" width="130" y="-1" x="-1"/>
 </g>
 <g>
  <title>Layer 1</title>
  <rect x="0" y="0" stroke="null" id="svg_1" fill="#ffffff" height="128.000002" width="128.000002"/>
  <path stroke="null" transform="rotate(0.5740220546722412 64.16606903076377,65.58911895751919) " id="svg_2" d="m85.585777,57.382369l-1.306023,2.431305c-0.477813,0.901113 -1.497149,1.27516 -2.404994,0.918115c-1.879399,-0.748094 -3.599527,-1.819228 -5.112603,-3.162397c-0.732647,-0.646081 -0.923772,-1.785224 -0.445959,-2.669335l1.306023,-2.431305c-1.098971,-1.360171 -1.959035,-2.941369 -2.532411,-4.658585l-2.627973,0c-0.955627,0 -1.783837,-0.731092 -1.943108,-1.75122c-0.318542,-2.040256 -0.334469,-4.182525 0,-6.307792c0.159271,-1.020128 0.987481,-1.768222 1.943108,-1.768222l2.627973,0c0.573376,-1.717216 1.43344,-3.298414 2.532411,-4.658585l-1.306023,-2.431305c-0.477813,-0.884111 -0.302615,-2.023254 0.445959,-2.669335c1.513076,-1.343169 3.249131,-2.414303 5.112603,-3.162397c0.907845,-0.357045 1.927181,0.017002 2.404994,0.918115l1.306023,2.431305c1.672347,-0.323041 3.376548,-0.323041 5.048894,0l1.306023,-2.431305c0.477813,-0.901113 1.497149,-1.27516 2.404994,-0.918115c1.879399,0.748094 3.599527,1.819228 5.112603,3.162397c0.732647,0.646081 0.923772,1.785224 0.445959,2.669335l-1.306023,2.431305c1.098971,1.360171 1.959035,2.941369 2.532411,4.658585l2.627973,0c0.955627,0 1.783837,0.731092 1.943108,1.75122c0.318542,2.040256 0.334469,4.182525 0,6.307792c-0.159271,1.020128 -0.987481,1.768222 -1.943108,1.768222l-2.627973,0c-0.573376,1.717216 -1.43344,3.298414 -2.532411,4.658585l1.306023,2.431305c0.477813,0.884111 0.302615,2.023254 -0.445959,2.669335c-1.513076,1.343169 -3.249131,2.414303 -5.112603,3.162397c-0.907845,0.357045 -1.927181,-0.017002 -2.404994,-0.918115l-1.306023,-2.431305c-1.65642,0.323041 -3.376548,0.323041 -5.048894,0zm-1.672347,-9.997255c6.131938,5.032632 13.12394,-2.431305 8.409515,-8.977127c-6.131938,-5.049634 -13.12394,2.431305 -8.409515,8.977127zm-18.36396,26.166284l5.367437,2.856358c1.608638,0.986124 2.309431,3.077386 1.672347,4.947621c-1.417513,4.114516 -4.204758,7.88899 -6.78495,11.187404c-1.178606,1.51319 -3.217277,1.887237 -4.825915,0.901113l-4.63479,-2.856358c-2.548338,2.329292 -5.510781,4.182525 -8.743984,5.389676l0,5.712717c0,1.972248 -1.32195,3.672461 -3.137641,4.012504c-3.91807,0.71409 -8.027264,0.748094 -12.088678,0c-1.831618,-0.340043 -3.185422,-2.023254 -3.185422,-4.012504l0,-5.712717c-3.233204,-1.224154 -6.195647,-3.060384 -8.743984,-5.389676l-4.63479,2.839356c-1.592711,0.986124 -3.647309,0.612077 -4.825915,-0.901113c-2.580192,-3.298414 -5.303728,-7.072888 -6.721241,-11.170402c-0.637084,-1.853233 0.063708,-3.944495 1.672347,-4.947621l5.303728,-2.856358c-0.621157,-3.553446 -0.621157,-7.208905 0,-10.779353l-5.303728,-2.873361c-1.608638,-0.986124 -2.325358,-3.077386 -1.672347,-4.930619c1.417513,-4.114516 4.141049,-7.88899 6.721241,-11.187404c1.178606,-1.51319 3.217277,-1.887237 4.825915,-0.901113l4.63479,2.856358c2.548338,-2.329292 5.510781,-4.182525 8.743984,-5.389676l0,-5.729719c0,-1.955245 1.306023,-3.655459 3.121714,-3.995501c3.91807,-0.71409 8.043192,-0.748094 12.104605,-0.017002c1.831618,0.340043 3.185422,2.023254 3.185422,4.012504l0,5.712717c3.233204,1.224154 6.195647,3.060384 8.743984,5.389676l4.63479,-2.856358c1.592711,-0.986124 3.647309,-0.612077 4.825915,0.901113c2.580192,3.298414 5.287801,7.072888 6.705314,11.187404c0.637084,1.853233 0.015927,3.944495 -1.592711,4.947621l-5.367437,2.856358c0.621157,3.570448 0.621157,7.225907 0,10.796355zm-0.366324,-22.578834c9.42885,-13.091643 -4.571081,-28.036518 -16.834957,-17.971255c-9.42885,13.091643 4.571081,28.036518 16.834957,17.971255zm38.766591,31.062898l-1.306023,2.431305c-0.477813,0.901113 -1.497149,1.27516 -2.404994,0.918115c-1.879399,-0.748094 -3.599527,-1.819228 -5.112603,-3.162397c-0.732647,-0.646081 -0.923772,-1.785224 -0.445959,-2.669335l1.306023,-2.431305c-1.098971,-1.360171 -1.959035,-2.941369 -2.532411,-4.658585l-2.627973,0c-0.955627,0 -1.783837,-0.731092 -1.943108,-1.75122c-0.318542,-2.040256 -0.334469,-4.182525 0,-6.307792c0.159271,-1.020128 0.987481,-1.768222 1.943108,-1.768222l2.627973,0c0.573376,-1.717216 1.43344,-3.298414 2.532411,-4.658585l-1.306023,-2.431305c-0.477813,-0.884111 -0.302615,-2.023254 0.445959,-2.669335c1.513076,-1.343169 3.249131,-2.414303 5.112603,-3.162397c0.907845,-0.357045 1.927181,0.017002 2.404994,0.918115l1.306023,2.431305c1.672347,-0.323041 3.376548,-0.323041 5.048894,0l1.306023,-2.431305c0.477813,-0.901113 1.497149,-1.27516 2.404994,-0.918115c1.879399,0.748094 3.599527,1.819228 5.112603,3.162397c0.732647,0.646081 0.923772,1.785224 0.445959,2.669335l-1.306023,2.431305c1.098971,1.360171 1.959035,2.941369 2.532411,4.658585l2.627973,0c0.955627,0 1.783837,0.731092 1.943108,1.75122c0.318542,2.040256 0.334469,4.182525 0,6.307792c-0.159271,1.020128 -0.987481,1.768222 -1.943108,1.768222l-2.627973,0c-0.573376,1.717216 -1.43344,3.298414 -2.532411,4.658585l1.306023,2.431305c0.477813,0.884111 0.302615,2.023254 -0.445959,2.669335c-1.513076,1.343169 -3.249131,2.414303 -5.112603,3.162397c-0.907845,0.357045 -1.927181,-0.017002 -2.404994,-0.918115l-1.306023,-2.431305c-1.65642,0.323041 -3.376548,0.323041 -5.048894,0zm-20.036307,16.152027c6.131938,5.032632 13.12394,-2.431305 8.409515,-8.977127c-6.131938,-5.032632 -13.12394,2.431305 -8.409515,8.977127z"/>
 </g>
</svg>