<?xml version="1.0" standalone="no"?>
<!DOCTYPE svg PUBLIC "-//W3C//DTD SVG 20010904//EN"
 "http://www.w3.org/TR/2001/REC-SVG-20010904/DTD/svg10.dtd">
<svg version="1.0" xmlns="http://www.w3.org/2000/svg"
 width="720.000000pt" height="720.000000pt" viewBox="0 0 720.000000 720.000000"
 preserveAspectRatio="xMidYMid meet">
<metadata>
Created by potrace 1.11, written by Peter Selinger 2001-2013
</metadata>
<g transform="translate(0.000000,720.000000) scale(0.100000,-0.100000)"
fill="#000000" stroke="none">
<path d="M0 3600 l0 -3600 3600 0 3600 0 0 3600 0 3600 -3600 0 -3600 0 0
-3600z m2200 215 c0 -27 -4 -35 -18 -35 -28 0 -42 -21 -42 -62 l0 -39 63 3 62
3 3 45 c1 25 5 55 7 68 6 27 58 52 105 52 27 0 30 -3 30 -34 0 -29 -4 -34 -29
-39 -29 -6 -41 -27 -41 -74 0 -20 5 -23 35 -23 32 0 35 -2 35 -30 0 -28 -3
-30 -35 -30 l-35 0 0 -180 0 -180 -35 0 -35 0 0 179 0 180 -32 3 c-18 2 -50 1
-70 -1 l-38 -3 0 -179 0 -179 -35 0 -35 0 0 180 0 180 -30 0 c-27 0 -30 3 -30
30 0 27 3 30 30 30 30 0 30 1 30 53 0 80 33 115 108 116 30 1 32 -1 32 -34z
m-925 -20 l0 -40 -40 0 -40 0 -3 43 -3 43 43 -3 43 -3 0 -40z m3505 -245 l0
-290 -40 0 -40 0 0 290 0 290 40 0 40 0 0 -290z m170 245 l0 -45 -40 0 -40 0
0 45 0 45 40 0 40 0 0 -45z m-3480 -50 c0 -54 0 -55 30 -55 28 0 30 -3 30 -35
0 -32 -2 -35 -30 -35 l-31 0 3 -147 3 -148 28 -3 c25 -3 28 -7 25 -35 -3 -31
-4 -32 -52 -31 -80 1 -86 14 -86 205 l0 159 -30 0 c-28 0 -30 3 -30 35 0 32 2
35 30 35 30 0 30 1 30 55 l0 55 40 0 40 0 0 -55z m390 -70 c36 -19 76 -65 89
-104 19 -59 14 -160 -13 -217 -33 -72 -73 -98 -158 -102 -81 -5 -117 8 -158
54 -38 44 -53 103 -48 186 6 74 39 143 82 172 55 36 148 41 206 11z m2211 -3
c72 -38 99 -88 99 -187 0 -81 -12 -125 -47 -173 -63 -84 -198 -92 -282 -17
-44 40 -61 88 -61 170 0 76 16 128 54 171 59 66 151 81 237 36z m475 0 c42
-22 54 -79 54 -252 l0 -160 -39 0 -40 0 -3 159 c-3 140 -5 162 -22 180 -29 32
-87 28 -128 -8 l-33 -29 -3 -151 -3 -151 -40 0 -39 0 0 216 0 215 38 -3 c30
-2 38 -7 40 -26 l4 -24 22 21 c40 37 135 44 192 13z m800 0 c42 -22 54 -79 54
-252 l0 -160 -39 0 -40 0 -3 159 c-3 140 -5 162 -22 180 -29 32 -87 28 -128
-8 l-33 -29 -3 -151 -3 -151 -40 0 -39 0 0 216 0 215 38 -3 c30 -2 38 -7 40
-26 l4 -24 22 21 c40 37 135 44 192 13z m-2605 -5 c52 -27 84 -84 93 -164 l5
-53 -154 0 c-175 0 -171 2 -136 -76 35 -77 124 -83 184 -13 26 30 41 39 65 39
37 0 39 -7 12 -60 -29 -57 -72 -84 -146 -88 -78 -5 -125 10 -163 53 -70 81
-69 241 2 322 17 20 45 42 62 49 48 21 126 17 176 -9z m389 -17 c0 -39 -1 -40
-34 -40 -44 0 -83 -32 -96 -78 -5 -20 -10 -90 -10 -154 l0 -118 -35 0 -35 0 0
210 0 210 35 0 c31 0 35 -3 35 -26 l0 -26 35 31 c25 22 46 31 70 31 34 0 35
-1 35 -40z m326 -2 c20 -22 34 -48 34 -63 0 -22 -4 -25 -35 -25 -23 0 -35 5
-35 13 0 24 -37 48 -79 54 -51 7 -91 -16 -91 -52 0 -29 29 -46 118 -70 87 -22
111 -35 128 -66 31 -61 4 -139 -60 -172 -46 -24 -159 -26 -203 -3 -37 18 -63
56 -70 102 -5 33 -5 34 29 34 29 0 37 -5 49 -32 17 -38 50 -58 100 -58 65 0
116 65 76 98 -7 6 -49 21 -92 33 -95 25 -129 44 -144 76 -24 52 0 121 51 153
28 18 46 21 111 18 76 -3 80 -4 113 -40z m2291 31 c70 -26 113 -97 113 -186
l0 -43 -150 0 -150 0 0 -27 c0 -106 148 -148 202 -57 16 28 26 34 54 34 29 0
34 -3 34 -25 0 -29 -51 -90 -93 -112 -16 -8 -55 -16 -86 -16 -76 -2 -127 25
-166 88 -27 43 -30 57 -30 129 0 110 31 169 110 210 34 18 121 21 162 5z
m-4469 -206 l-3 -208 -42 -3 -43 -3 0 210 0 211 45 0 45 0 -2 -207z m3672 -3
l0 -210 -40 0 -40 0 0 210 0 210 40 0 40 0 0 -210z m-1260 -165 l0 -45 -45 0
-45 0 0 45 0 45 45 0 45 0 0 -45z"/>
<path d="M1721 3617 c-45 -23 -65 -62 -69 -136 -6 -109 38 -171 120 -171 35 0
77 33 93 72 19 48 19 138 1 183 -23 55 -92 80 -145 52z"/>
<path d="M3935 3621 c-86 -35 -102 -217 -26 -285 31 -28 104 -26 135 3 45 42
61 162 30 226 -24 51 -88 76 -139 56z"/>
<path d="M2605 3616 c-32 -14 -58 -46 -67 -83 -6 -23 -5 -23 107 -23 l114 0
-10 32 c-19 66 -85 100 -144 74z"/>
<path d="M5612 3604 c-22 -15 -52 -63 -52 -84 0 -6 40 -10 110 -10 62 0 110 4
110 9 0 21 -20 60 -41 80 -28 26 -94 28 -127 5z"/>
</g>
</svg>
